<?xml version="1.0" encoding="utf-8"?>
<!-- Generator: Adobe Illustrator 23.1.0, SVG Export Plug-In . SVG Version: 6.00 Build 0)  -->
<svg version="1.1" id="Layer_1" xmlns="http://www.w3.org/2000/svg" xmlns:xlink="http://www.w3.org/1999/xlink" x="0px" y="0px"
	 viewBox="0 0 490 490" style="enable-background:new 0 0 490 490;" xml:space="preserve">
<style type="text/css">
	.st0{fill:#E1975C;}
	.st1{fill:#524F75;}
	.st2{fill:#FFE8A9;}
	.st3{fill:#EAE6DB;}
	.st4{fill:#FFE6A2;}
	.st5{fill:#FFFFFF;}
	.st6{fill:#232323;}
	.st7{fill:#F9D679;}
</style>
<path class="st0" d="M372.2,144.9c7.8,4.9,12.1,8.6,17.6,11.4c5.5,2.7,14.5,3.6,25.2,3.4l7.6-0.2c1.3-0.4,3.9-1.1,4.3-3
	c0.4-1.6-0.5-3.8-1.4-5.4c-0.6-1.1-1.8-2.7-3.5-4.8c-10.2-11.9-14.8-16.5-18.7-19.9c-4.5-3.9-11.3-7.9-20.5-12"/>
<path class="st1" d="M417.4,149.9c-8.8-10.3-13.6-15.3-18-19.1c-4-3.4-10.3-7.2-19.1-11.1c-2.9-1.3-4.3-4.8-2.9-7.7
	c1.3-2.9,4.8-4.3,7.7-2.9l0,0c9.7,4.4,17,8.6,22,13c4.9,4.3,10,9.6,19.3,20.5c2,2.5,3.4,4.4,4.2,5.8c1.9,3.3,2.8,6.4,2,9.6
	c-0.8,3.5-3.3,5.5-6.5,6.7c-0.7,0.2-1.3,0.5-2,0.6c-0.5,0.1-0.9,0.2-1.4,0.2l-7.6,0.2c-12.3,0.3-21.7-0.9-27.9-4
	c-1.1-0.5-2.1-1.1-3.1-1.7c-2.4-1.4-12-8.1-15-10c-2.7-1.7-3.5-5.4-1.8-8.1c1.7-2.7,5.3-3.5,8-1.8c3.3,2.1,12.7,8.6,14.7,9.8
	c0.8,0.5,1.6,0.9,2.4,1.3c4.1,2,11.8,3,22.4,2.7l5.3-0.1C419.7,152.9,418.8,151.6,417.4,149.9L417.4,149.9z"/>
<path class="st2" d="M397.4,133.1c-1.4-1-4.5-2.6-9-4.9c-3.3-1.6-7.2-0.5-9.2,2.6c-1.9,3.1-1.4,8.6,0.8,11c3,3.3,7.1,5.8,8.4,6.5
	c1,0.6,4.7,1.4,11,2.5c2.8,0.6,6.3-0.5,7.5-2.5c1.2-2.1,1-4.7-0.6-6.5C402,137.1,399,134.2,397.4,133.1L397.4,133.1z"/>
<path class="st3" d="M407.4,11.2C401.2,30,394,43.9,385.8,52.9c-8.9,9.9-20.7,16.7-35.5,20.4c2.5,9.1,5.5,16.4,9.1,22
	c3.6,5.6,10,11.1,19.1,16.6c13.1-7.7,23.9-20.9,32.4-39.3c7.9-17.1,7.9-37.6,0.2-61.4c-0.3-1-1.4-1.6-2.5-1.3
	C408.1,10.1,407.6,10.6,407.4,11.2L407.4,11.2z"/>
<path class="st1" d="M406.7,70.1c-7.1,16.1-15.9,27.9-26.5,35.3c-6.9-4.3-11.7-8.5-14.4-12.6c-2.6-3.8-4.9-8.7-7-14.7
	c13.1-4.5,23.8-11.5,32.2-21c6.8-7.8,12.8-18.7,18-32.6C413.2,41.9,412.4,57,406.7,70.1L406.7,70.1z M382.2,49.4
	c-7.9,9.1-18.6,15.5-32.2,19.2c-3.1,0.8-5,4.1-4.1,7.2c0,0,0,0.1,0,0.1c2.8,9.6,6.2,17.4,10.3,23.5c4.3,6.4,11.4,12.3,21.3,18
	c1.9,1.1,4.2,1,6-0.1c14-8.7,25.3-22.9,34-42.5c8.2-18.7,7.9-40.7-0.7-65.7c-1.4-4.1-5.9-6.2-9.9-4.8c-2.3,0.8-4.2,2.7-4.9,5
	C396.1,27.6,389.5,40.9,382.2,49.4L382.2,49.4z"/>
<path class="st0" d="M387.4,338.7l-9.1,90.2c-1.3,13-12.2,22.8-25.2,22.8h-18.4c-14,0-25.4-11.4-25.4-25.4v-82.7"/>
<path class="st1" d="M381.6,338.1l-9.1,90.2c-1,10-9.4,17.6-19.4,17.6h-18.4c-10.8,0-19.5-8.7-19.5-19.5v-82.7
	c0-3.2-2.6-5.9-5.9-5.8c-3.2,0-5.8,2.6-5.8,5.8v82.7c0,17.2,14,31.2,31.2,31.2h18.4c16,0,29.5-12.1,31.1-28.1l9.1-90.2
	c0.2-3.2-2.2-6-5.4-6.3C384.8,332.7,382,335,381.6,338.1L381.6,338.1z"/>
<path class="st3" d="M311,442.2c12,4.6,22.1,6.8,30.2,6.8c8.1,0,19.9-3.1,35.4-9.2l-5.4,31.4h-53.7L311,442.2L311,442.2z"/>
<path class="st1" d="M322.2,465.5h44l2.9-16.6c-11.5,4-20.7,6-27.9,6c-6.5,0-13.9-1.3-22.2-3.8L322.2,465.5z M313.1,436.8
	c11.4,4.3,20.8,6.5,28.1,6.5c7.2,0,18.4-2.9,33.2-8.8c4.2-1.7,8.7,1.9,7.9,6.4l-5.4,31.4c-0.5,2.8-2.9,4.9-5.8,4.9h-53.7
	c-2.7,0-5.1-1.9-5.7-4.6l-6.5-29.1C304.3,439,308.8,435.1,313.1,436.8L313.1,436.8z"/>
<path class="st0" d="M102.8,316.2c-13,6.6-20.2,7-29.5,6.6c-9.2-0.5-17.5-1.3-18.5-12.3c-0.4-4.9,0.6-11.5,2.1-17.3
	c2.2-9,3.6-16.7,10.6-30.1c1-1.9,4.9-9.3,5.8-11.1c2.2-4.3,3.9-7.6,5.3-10.7c3.8-8.3,1.2-17.6-2.6-23.6l-8.5,2.1
	c0.9,3.4,2,7.6-0.9,16.6c-1,3.1-7,13-12.2,20c-9,12.2-14.6,23.4-17.2,34.1c-1.9,7.6-2.6,14.7-2,21.6c1.7,19.9,13.5,30.9,31.4,31.8
	c13,0.7,29.3,5.1,45.7,6.6L102.8,316.2L102.8,316.2z"/>
<path class="st1" d="M100.1,311l6.4-3.2l13.7,49.2l-8.4-0.8c-6.4-0.6-12.2-1.5-21.9-3.2c-14.5-2.6-18.1-3.1-23.7-3.4
	c-21.3-1.1-35.1-14.7-37-37.1c-0.6-7.4,0.1-15.2,2.2-23.5c2.9-11.6,8.9-23.6,18.2-36.1c4.8-6.5,10.6-16,11.4-18.4
	c2-6.3,2-8.9,0.8-13.2l-1.6-5.8l18.5-4.6l2.2,3.6c5.4,8.7,7.2,19.7,2.9,29.1c-1.4,3.1-3.1,6.5-5.4,11l-2.9,5.6
	c-1.8,3.5-2.5,4.8-2.9,5.5c-4.6,8.9-6.7,14.8-8.9,24.1l-0.3,1.4l-0.4,1.7l-0.4,1.7c-1.5,5.9-2.2,11.7-1.9,15.4
	c0.4,5.3,2.6,6.4,12.9,6.9C83.9,317.5,89.5,316.4,100.1,311L100.1,311z M72.1,238.1c-1.3,3.9-7.6,14.3-13.1,21.7
	c-8.4,11.4-13.8,22-16.2,32c-1.8,7.1-2.4,13.6-1.9,19.7c1.4,16.6,10.5,25.7,25.9,26.4c6.3,0.3,10,0.9,25.1,3.6c5,0.9,8.9,1.5,12.3,2
	L99,324.5c-9,3.8-16,4.7-26,4.2c-7.1-0.4-10.8-0.9-14.6-2.8c-5.6-2.7-8.8-7.7-9.4-14.9c-0.4-5.2,0.5-12.2,2.2-19.2
	c0.2-0.9,0.2-0.9,0.8-3.4l0.3-1.4c2.5-10.1,4.8-16.8,9.9-26.7c0.4-0.8,1.1-2.1,2.9-5.6c1-1.9,1.9-3.7,2.9-5.6
	c2.2-4.3,3.8-7.5,5.1-10.5c1.3-3,1.6-6.4,1-9.9C74,231.6,73.3,234.5,72.1,238.1L72.1,238.1z M74,221.8c-0.2-1.3-0.5-2.5-0.9-3.7
	l-5.6,1.6l1.4,5.7l8.5-2.1l-6.4-2.6c0.7,1.2,1.4,2.4,1.9,3.7c0.6,1.5,1,3,1.3,4.5C74.5,226.5,74.4,224.2,74,221.8L74,221.8z"/>
<path class="st2" d="M22.6,191.7c11.9,1.6,18.4,1.6,19.8-0.1c0.3-0.4-3.7-4.4-7.9-13.9c-1.1-2.4-2.4-7-3.9-13.8
	c6.2,2.2,10.5,3.9,12.8,5.3c6.9,4,10.8,8.4,12.2,8.4c2.1,0,4.1-4.6,6-13.8c7.2,7.1,12.2,12.9,15.2,17.3c1.4,2.1,3,5.4,4.7,9.9
	c3.9,10.2-1.2,21.6-11.4,25.5c-10.6,4.1-22.7,1.7-30.9-6.3l-2.3-2.2C37,208.1,32.2,202.7,22.6,191.7z"/>
<path class="st1" d="M37.5,199.7l3.5,4.2l-4.5,3.7l4.2-4.1l2.2,2.3c6.4,6.6,15.9,8.8,24.6,5.9c7.2-2.5,11.1-10.4,8.6-17.6
	c-1.4-4.2-2.7-7.2-3.8-8.9c-1.6-2.5-3.9-5.6-7-9.3c-2.2,5.3-4.8,7.8-9.2,7.8c-2,0-3.3-0.7-4.9-2c-0.7-0.5-0.9-0.7-2.7-2.2
	c-2.8-2.4-4.8-3.9-7.3-5.5c-0.4-0.3-0.8-0.5-1.3-0.7c0.2,0.7,0.4,1.3,0.6,1.7c0.4,1,0.8,1.9,1.2,2.8c1.3,2.9,2.6,5.3,4.1,7.6
	c0.2,0.4,1.2,1.8,1.4,2.1c0.3,0.5,0.5,0.8,0.7,1.3c0.2,0.5,0.4,1,0.5,1.7c0.2,1.6-0.1,3.2-1.4,4.7c-2,2.4-5.2,3.3-10.4,3.2
	C36.7,198.7,37.1,199.2,37.5,199.7L37.5,199.7z M32.7,186.2L32.7,186.2L32.7,186.2z M32.7,186.2c-0.6-1.2-1.2-2.4-1.8-3.7
	c-0.5-1.1-1-2.1-1.4-3.2c-1.2-2.9-2.4-7.8-3.7-15c-0.8-4.5,3.6-8.2,7.9-6.5c6.5,2.5,10.9,4.6,13.6,6.2c2.7,1.7,4.9,3.4,7.6,5.6
	c0.6-1.8,1.3-4.1,2-6.8c1.1-4.5,6.8-6,10-2.6c7.2,7.6,12.2,13.8,15.3,18.7c1.6,2.6,3.3,6.4,5,11.3c4.6,13.4-2.5,27.9-15.9,32.5
	c-12.9,4.5-27.3,1-36.8-8.8l-2.2-2.3c-0.1-0.1-0.2-0.2-0.3-0.4l-13.8-16.9c-3.4-4.2,0.2-10.4,5.5-9.5
	C27.1,185.5,30.2,186,32.7,186.2L32.7,186.2z"/>
<path class="st0" d="M393.6,275.7V157.5c0-57-45.2-103.8-102.2-105.6c-1.1,0-2.2-0.1-3.3-0.1c-54.6,0-98.9,44.3-98.9,98.9v48.5
	c-10.8,5.7-21.5,11.4-32.1,17.4c-45.5,25.3-70.6,76.1-62.9,127.6c7.2,48.4,48.8,84.2,97.7,84.2h77.5c63.3,0,116.6-47.4,124-110.2
	l0.9-8C395.8,298.7,395.5,287.1,393.6,275.7z"/>
<path class="st1" d="M400.5,308c-0.1,1-0.2,2-0.3,2.9l-0.9,8c-7.8,65.8-63.6,115.4-129.8,115.4h-77.5c-51.8,0-95.8-37.9-103.5-89.2
	c-8.1-53.9,18.2-107.2,65.8-133.6c9.6-5.4,19.4-10.6,29.1-15.8v-45C183.3,92.9,230.3,46,288.1,46c1.2,0,2.3,0,3.5,0.1
	c60.1,2,107.9,51.3,107.9,111.5v117.7C401.2,286,401.6,297,400.5,308L400.5,308z M387.7,157.5c0-53.9-42.7-98-96.5-99.8
	c-1,0-2-0.1-3.1-0.1c-51.4,0-93.1,41.7-93.1,93.1v52l-3.1,1.6c-10.7,5.6-21.4,11.4-32,17.3c-43.4,24.1-67.3,72.6-59.9,121.7
	c6.8,45.5,45.9,79.2,91.9,79.2h77.5c60.3,0,111.1-45.1,118.2-105l0.9-8c1.3-10.9,1-22-0.8-32.9L387.7,157.5L387.7,157.5z"/>
<path class="st4" d="M365.5,303.6c8.3-0.5,15.5,5.8,16,14.1c0.1,1.1,0,2.3-0.2,3.4l-4.9,29.9c-3.4,20.9-20.6,36.7-41.7,38.5
	l9.3-65.9C345.5,312.6,354.5,304.3,365.5,303.6L365.5,303.6z"/>
<path class="st0" d="M241.1,71.2c12.5-18.8,3.7-32.4,6.4-32.4c2.6,0,24.9,6.1,27.2,16.1c16.1-7.5,36-18.7,39.1-18.7
	c3.2,0-8,18.7-11.2,22.4c20.4-2.9,33.4-17.1,38.4-17.1c4.9,0,5.8,10.6,5.5,29.6l-2.8,9.9"/>
<path class="st1" d="M258.8,48.4c5.9,2.7,9.7,5.7,10.1,7.8c0.7,3.2,3.8,5.1,7,4.5c0.4-0.1,0.8-0.2,1.2-0.4c3.1-1.5,6.2-3,9.3-4.5
	c1-0.5,2.1-1.1,3.3-1.6c0.8-0.4,8.4-4.3,13.4-6.8c-2,3.4-4,6.5-5,7.6c-3.5,4.1-0.1,10.4,5.3,9.6c8.7-1.3,16.6-4.3,24.8-9
	c1.9-1.1,3.7-2.2,5.5-3.4c0.5-0.3,3.6-2.3,4.4-2.8c0.6-0.4,1.1-0.7,1.5-0.9c0.1,0.5,0.2,1.1,0.3,1.8c0.6,4.1,0.9,10.4,0.7,20.2
	l-2.6,9.2c-0.9,3.1,0.9,6.3,4,7.2c3.1,0.9,6.3-0.9,7.2-4l0,0l2.8-9.9c0.1-0.5,0.2-1,0.2-1.5c0.2-10.8,0-17.9-0.8-23
	c-1.2-7.7-4.1-12.6-10.5-12.6c-2.8,0-5,1.1-9.1,3.7c-0.8,0.5-4,2.6-4.4,2.8c-1.7,1.1-3.4,2.1-5.1,3.1c-2.1,1.2-4.3,2.4-6.5,3.4
	c1.6-2.9,2.8-5.5,3.5-7.5c0.5-1.5,0.8-2.8,0.9-4.1c0.1-3.4-2.1-6.8-6.4-6.8c-2.5,0-5.3,1.2-12.1,4.6c-3.1,1.5-16.2,8.2-17.2,8.7
	c-2.4,1.2-4.8,2.4-7.2,3.6c-3-3.7-7.7-6.8-13.6-9.5c-5.9-2.7-13.3-4.8-16.1-4.8c-2.6,0-5,1.6-5.9,4.1c-0.5,1.2-0.5,2.2-0.4,3.4
	c0,0.6,0.1,1.1,0.3,1.9c-0.1-0.4,0.2,1.4,0.3,1.9c1.3,8,0.3,15-5.5,23.6c-1.8,2.7-1,6.3,1.7,8.1c2.7,1.8,6.3,1,8.1-1.6
	c6.6-9.9,8.6-18.8,7.8-28C255.5,47.1,257.2,47.7,258.8,48.4L258.8,48.4z"/>
<path class="st0" d="M192.3,375.2l2,54.4c0.4,11.8-8.8,21.8-20.6,22.2c-0.3,0-0.5,0-0.8,0h-19.2c-17.2,0-33.7-15-38-31.8l-18.9-65.8
	"/>
<path class="st1" d="M186.4,375.4l2,54.4c0.3,8.6-6.4,15.9-15,16.2c-0.2,0-0.4,0-0.6,0h-19.2c-14,0-28.6-12.5-32.4-27.4l-18.9-66
	c-0.9-3.1-4.1-5-7.2-4.1c-3.1,0.9-5,4.1-4.1,7.2c0,0,0,0.1,0,0.1l18.9,65.8c5,19.7,24.1,36,43.7,36h19.2c0.3,0,0.7,0,1,0
	c15.1-0.6,26.8-13.2,26.3-28.3l-2-54.4c-0.2-3.2-2.9-5.7-6.2-5.5C188.8,369.6,186.3,372.2,186.4,375.4z"/>
<path class="st0" d="M339.1,351.7l-3.9,76.1c-0.7,13.5-11.8,24.1-25.3,24.1h-18c-14,0-25.4-11.4-25.4-25.4v-68.8"/>
<path class="st1" d="M333.3,351.4l-3.9,76.1c-0.5,10.4-9.1,18.5-19.5,18.5h-18c-10.8,0-19.5-8.7-19.5-19.5v-68.8
	c0-3.2-2.6-5.9-5.9-5.8c-3.2,0-5.8,2.6-5.8,5.8v68.8c0,17.2,14,31.2,31.2,31.2h18c16.6,0,30.3-13,31.2-29.6L345,352
	c0.2-3.2-2.3-6-5.5-6.1c0,0,0,0,0,0C336.2,345.7,333.5,348.2,333.3,351.4C333.3,351.4,333.3,351.4,333.3,351.4L333.3,351.4z"/>
<path class="st1" d="M184.5,356.2c0,4.3,3.5,7.8,7.8,7.8c4.3,0,7.8-3.5,7.8-7.8s-3.5-7.8-7.8-7.8C188,348.4,184.5,351.9,184.5,356.2
	L184.5,356.2z"/>
<path class="st1" d="M258.7,338.7c0,4.3,3.5,7.8,7.8,7.8c4.3,0,7.8-3.5,7.8-7.8c0,0,0,0,0,0c0-4.3-3.5-7.8-7.8-7.8
	C262.2,330.8,258.7,334.3,258.7,338.7C258.7,338.6,258.7,338.7,258.7,338.7z"/>
<path class="st3" d="M266.2,442.5c12.2,4.6,22.3,6.8,30.6,6.8c8.2,0,20.2-3.1,35.8-9.2l-5.5,31.4h-54.3L266.2,442.5z"/>
<path class="st1" d="M277.4,465.7h44.7l2.9-16.6c-11.7,4-21.1,6-28.3,6c-6.6,0-14.1-1.3-22.6-3.8L277.4,465.7L277.4,465.7z
	 M268.2,437c11.6,4.3,21.1,6.5,28.5,6.5c7.3,0,18.7-2.9,33.7-8.8c4.3-1.7,8.7,2,7.9,6.5l-5.5,31.4c-0.5,2.8-2.9,4.8-5.8,4.8h-54.3
	c-2.7,0-5.1-1.9-5.7-4.6l-6.6-29.1C259.5,439.2,263.9,435.3,268.2,437L268.2,437z"/>
<path class="st0" d="M266.4,377.4c0.5,11.2-0.8,29.5-3.9,54.8c-1.6,13.3-13.4,23.1-26.8,22.2l-18.2-1.1
	c-13.3-0.8-23.7-11.8-23.8-25.1l-0.7-28.9"/>
<path class="st1" d="M260.5,377.7c0.5,10.8-0.8,28.8-3.9,53.9c-1.3,10.3-10.3,17.8-20.6,17.1l-18.2-1.1
	c-10.2-0.6-18.2-9.1-18.3-19.3l-0.7-29c-0.1-3.2-2.8-5.8-6.1-5.6c-3.2,0.1-5.7,2.7-5.6,5.9l0.7,28.9c0.1,16.3,12.9,29.8,29.2,30.8
	l18.2,1.1c16.5,1,30.9-11,33-27.4c3.1-25.6,4.5-44.2,3.9-55.8c-0.1-3.2-2.8-5.8-6-5.7c-3.2,0.1-5.8,2.8-5.7,6
	C260.5,377.6,260.5,377.6,260.5,377.7L260.5,377.7z"/>
<path class="st3" d="M196.4,443.6c12.4,3.6,22.7,5.4,30.7,5.4c8.1,0,19-2.6,32.7-7.7l-6,30.1h-53.4L196.4,443.6L196.4,443.6z"/>
<path class="st1" d="M205.5,465.5H249l3-15.4c-9.9,3.1-18.1,4.7-24.9,4.7c-6.7,0-14.6-1.1-23.7-3.3L205.5,465.5z M198,437.9
	c11.9,3.5,21.6,5.2,29.1,5.2c7.3,0,17.5-2.4,30.6-7.3c4.3-1.6,8.7,2.1,7.8,6.6l-6,30.1c-0.5,2.7-2.9,4.7-5.7,4.7h-53.4
	c-2.9,0-5.4-2.1-5.8-5l-4-27.8C189.9,440.2,193.9,436.7,198,437.9L198,437.9z"/>
<path class="st3" d="M131.8,446c13.2,2.6,23.9,3.9,32.2,3.9s19-1.3,32.2-3.9l-5,25.4h-54.5L131.8,446z"/>
<path class="st1" d="M141.6,465.5h44.8l2.4-12.2c-9.8,1.6-18,2.5-24.8,2.5s-15-0.8-24.8-2.5L141.6,465.5L141.6,465.5z M133,440.2
	c12.9,2.5,23.2,3.8,31.1,3.8c7.8,0,18.2-1.3,31.1-3.8c4.1-0.8,7.7,2.8,6.9,6.9l-5,25.4c-0.5,2.7-2.9,4.7-5.7,4.7h-54.5
	c-2.8,0-5.2-2-5.7-4.7l-5-25.4C125.3,443,128.9,439.4,133,440.2L133,440.2z"/>
<path class="st3" d="M157.7,12.4c0.4,0.6,0.7,1.1,0.9,1.5c9,18.6,16.3,32.2,26,40.6c10.7,9.3,25.3,15.2,43.6,17.7
	c-3.8,13.3-7.2,21.9-10.2,25.9c-3,4-9.2,9.4-18.4,16.3c-14.6-5.3-27.7-17.2-39.1-35.7c-10.6-17.2-15.3-38.4-10.2-64.7
	c0.4-2.2,2.6-3.7,4.8-3.2C156.1,10.8,157.1,11.5,157.7,12.4L157.7,12.4z"/>
<path class="st1" d="M163.9,74.9c9.1,16.7,19.7,27.9,31.5,33.8c7.7-5.3,12.8-9.4,15.4-12.4c2.1-2.5,5-8.3,8.3-17.2
	c-16.1-3.9-29.1-10.6-39-20.1c-8.4-8.1-14.6-19-23.5-40C152.2,40.1,154.9,58.5,163.9,74.9L163.9,74.9z M164.5,8.4
	c0.5,0.8,0.9,1.6,1.2,2.3c9.2,22.1,15.1,32.8,22.5,39.9c9.4,9,22.5,15.2,39.7,18.4c3.2,0.6,5.3,3.7,4.7,6.8
	c-0.1,0.3-0.1,0.5-0.2,0.8c-4.7,13.8-8.8,22.7-12.6,27.2c-3.7,4.3-10.5,9.7-20.5,16.3c-1.6,1.1-3.7,1.3-5.5,0.5
	c-15.7-6.6-29-20.2-40-40.3c-11.1-20.2-13.9-43.4-7.3-69.4c1.3-5.3,6.8-8.6,12.1-7.2C160.9,4.5,163.1,6.2,164.5,8.4L164.5,8.4z"/>
<path class="st0" d="M213.8,150.6c-10.6,2.4-16.8,4.7-23.9,5.6c-7.1,0.9-17.5-1.4-29.3-5.6l-8.3-2.9c-1.3-0.9-3.9-2.5-3.7-4.8
	c0.2-1.8,2.1-3.8,3.7-5.2c1.1-0.9,3-2.2,5.8-3.8c15.9-9,22.7-12.1,28.4-14.3c6.5-2.5,15.6-4.2,27.4-5.3"/>
<path class="st1" d="M156,142.1c0.8-0.6,2.5-1.8,5-3.3c13.8-7.8,21.1-11.4,27.5-13.8c5.9-2.3,14.5-3.9,25.8-4.9
	c3.2-0.4,5.5-3.2,5.2-6.5c-0.3-3.1-3.1-5.4-6.2-5.2c-12.3,1.1-22,2.9-29,5.6c-7,2.7-14.7,6.5-29.1,14.6c-3.2,1.9-5.3,3.3-6.7,4.5
	c-3.2,2.7-5.3,5.5-5.7,9.1c-0.4,3.8,1.5,6.6,4.4,8.9c0.6,0.5,1.1,0.8,1.9,1.3c0.4,0.3,0.8,0.5,1.3,0.6l8.3,2.9
	c13.4,4.8,24.1,6.9,32,5.9c1.4-0.2,2.7-0.4,4-0.7c3.2-0.6,16.4-4.2,20.4-5.1c3.2-0.7,5.1-3.8,4.5-7c-0.7-3.2-3.8-5.1-7-4.5
	c0,0,0,0,0,0c-4.5,1-17.4,4.5-20.1,5c-1.1,0.2-2.2,0.4-3.3,0.5c-5.6,0.7-14.7-1.1-26.6-5.3l-7-2.5
	C155.6,142.4,155.8,142.3,156,142.1L156,142.1z"/>
<path class="st2" d="M189.9,129c1.9-0.5,5.7-1.1,11.4-1.9c4.2-0.6,8.1,2.2,9.1,6.3c0.9,4.1-1.2,8.7-5.2,9.9c-5.2,1.6-9.8,2-11.5,2.3
	c-1.9,0.4-7.1,0.8-13.5,0c-2.7-0.3-5.5-0.8-6.1-3.5c-0.6-2.8,1.8-6.4,4.3-7.7C184.6,131.2,188.5,129.4,189.9,129L189.9,129z"/>
<path class="st5" d="M328.9,144.4c0,12.3,10,22.3,22.4,22.3c12.4,0,22.4-10,22.4-22.3l0,0c0-12.3-10-22.3-22.4-22.3
	C338.9,122.1,328.9,132.1,328.9,144.4z"/>
<path class="st1" d="M351.3,172.6c-15.6,0-28.2-12.6-28.2-28.2s12.6-28.2,28.2-28.2c15.6,0,28.2,12.6,28.2,28.2
	S366.9,172.6,351.3,172.6z M351.3,160.9c9.1,0,16.5-7.4,16.5-16.5c0-9.1-7.4-16.5-16.5-16.5c-9.1,0-16.5,7.4-16.5,16.5
	C334.8,153.5,342.1,160.9,351.3,160.9z"/>
<path class="st6" d="M339.3,151.2c1.4,1.6,3.4,2.5,5.4,2.5c4,0,7.2-3.2,7.2-7.2c0-4-3.2-7.2-7.2-7.2c-3.9,0-7.1,3.1-7.2,7l5.3,0.8
	L339.3,151.2L339.3,151.2z"/>
<path class="st5" d="M262.6,133.8c0,17.2,14,31.2,31.2,31.2c17.2,0,31.2-14,31.2-31.2c0,0,0,0,0,0c0-17.2-14-31.2-31.2-31.2
	C276.6,102.5,262.6,116.5,262.6,133.8C262.6,133.8,262.6,133.8,262.6,133.8z"/>
<path class="st1" d="M293.8,170.9c-20.5,0-37.1-16.6-37.1-37.1s16.6-37.1,37.1-37.1s37.1,16.6,37.1,37.1S314.3,170.9,293.8,170.9
	L293.8,170.9z M293.8,159.1c14,0,25.4-11.4,25.4-25.4c0-14-11.4-25.4-25.4-25.4s-25.4,11.4-25.4,25.4
	C268.4,147.8,279.8,159.1,293.8,159.1L293.8,159.1z"/>
<path class="st6" d="M296.2,146c3.5,4.1,9.7,4.5,13.8,1c2.1-1.9,3.4-4.6,3.4-7.4c0.1-5.4-4.3-9.8-9.7-9.9c-5.4-0.1-9.8,4.3-9.9,9.7
	l7.2,1.1L296.2,146z"/>
<path class="st4" d="M295.9,171.7c12.5-2,21.7-2.9,27.6-2.8c6,0.1,14.7,1.2,26.3,3.2c25.2,4.4,45.5,23.4,51.5,48.3l2.4,9.8
	c6.2,25.5-9.5,51.1-35,57.3c-1.2,0.3-2.4,0.5-3.7,0.7c-22.1,3.5-35.9,5.3-41.5,5.5c-5.6,0.1-18.7-1.5-39.5-5
	c-27.7-4.6-46.6-30.7-42.3-58.5l0.8-4.9C246.7,197.8,268.3,176.2,295.9,171.7L295.9,171.7z"/>
<path class="st1" d="M296.8,177.5c-25.1,4-44.7,23.7-48.5,48.8l-0.8,4.9c-3.8,24.6,12.9,47.7,37.5,51.8c20.4,3.4,33.3,5,38.4,4.9
	c5.3-0.1,19-2,40.8-5.4c1.1-0.2,2.2-0.4,3.2-0.6c22.3-5.4,36-27.9,30.6-50.2l-2.4-9.8c-5.5-22.6-23.9-39.9-46.8-43.9
	c-11.3-2-19.8-3-25.4-3.2C317.9,174.6,309,175.6,296.8,177.5L296.8,177.5z M294.9,166c12.8-2.1,22.3-3,28.7-2.9
	c6.3,0.1,15.4,1.3,27.2,3.3c27.5,4.8,49.6,25.5,56.2,52.7l2.4,9.8c6.9,28.6-10.7,57.4-39.3,64.3c-1.4,0.3-2.7,0.6-4.1,0.8
	c-22.3,3.6-36.3,5.4-42.3,5.6c-6.1,0.2-19.4-1.5-40.6-5.1c-30.9-5.2-51.9-34.2-47.1-65.2l0.8-4.9C241.3,194.4,264.9,170.8,294.9,166
	z"/>
<path class="st1" d="M321.8,243c4.4-3.8,7.1-9.1,7.1-14.9c0-12.1-8-20.5-21.6-20.1c-13.6,0.4-21.3,8.3-21.3,20.1
	c0,3.2,2.6,5.9,5.9,5.8c3.2,0,5.8-2.6,5.8-5.8c0-5.5,2.7-8.2,9.9-8.4c6.8-0.2,9.6,2.7,9.6,8.4c0,2.3-1,4.4-2.9,6
	c-2.5,2.1-2.8,5.8-0.7,8.3C315.7,244.8,319.4,245.1,321.8,243z"/>
<path class="st7" d="M305.7,233c2.9,0,7.6-1.6,7.6-5.6c0-4-4.7-5.6-7.6-5.6s-5.2,3.9-5.2,6.5C300.5,230.9,302.8,233,305.7,233
	L305.7,233z"/>
<path class="st1" d="M355.5,243c-4.4-3.8-7.1-9.1-7.1-14.9c0-12.1,8-20.5,21.6-20.1c13.6,0.4,21.3,8.3,21.3,20.1
	c0,3.2-2.6,5.9-5.9,5.8c-3.2,0-5.8-2.6-5.8-5.8c0-5.5-2.7-8.2-9.9-8.4c-6.8-0.2-9.6,2.7-9.6,8.4c0,2.3,1,4.4,2.9,6
	c2.5,2.1,2.8,5.8,0.7,8.3C361.6,244.8,357.9,245.1,355.5,243z"/>
<path class="st7" d="M369.7,233c-2.9,0-7.6-1.6-7.6-5.6c0-4,4.7-5.6,7.6-5.6c2.9,0,5.2,3.9,5.2,6.5C374.9,230.9,372.5,233,369.7,233
	L369.7,233z"/>
</svg>
